<?xml version="1.0" encoding="utf-8"?>
<!-- Generator: Adobe Illustrator 25.4.1, SVG Export Plug-In . SVG Version: 6.00 Build 0)  -->
<svg version="1.1" id="Layer_1" xmlns="http://www.w3.org/2000/svg" xmlns:xlink="http://www.w3.org/1999/xlink" x="0px" y="0px"
	 viewBox="0 0 1080 1080" style="enable-background:new 0 0 1080 1080;" xml:space="preserve">
<style type="text/css">
	
		.st0{clip-path:url(#SVGID_00000149370550244566999520000009212394571391728293_);fill:url(#SVGID_00000116236826474634614080000004248327194806633137_);}
	
		.st1{clip-path:url(#SVGID_00000089568549322305225090000010022481432692573099_);fill:url(#SVGID_00000029016949610804560420000015595862988698978996_);}
	
		.st2{clip-path:url(#SVGID_00000051374999293328001670000002355359065985383591_);fill:url(#SVGID_00000088847430658826873800000001800594778600474762_);}
	
		.st3{clip-path:url(#SVGID_00000083805348093634781930000014835083081683615932_);fill:url(#SVGID_00000028298271609599847240000007654430723843476900_);}
</style>
<g>
	<defs>
		<path id="SVGID_1_" d="M335.78,553.43c-20.26,0-38.43-11.53-38.43-35.99V414.39h-41.92v104.1c0,30.4,22.71,73.71,80.35,73.71
			c114.94,0,101.31-141.84,199.48-141.84c29,0,48.21,19.22,48.21,51.71c0,7.68-1.05,15.37-2.79,21.31
			c14.67-19.22,24.46-37.73,38.43-57.99c-12.58-32.49-42.62-53.45-83.14-53.45C415.43,411.94,410.19,553.43,335.78,553.43"/>
	</defs>
	<clipPath id="SVGID_00000011715863809853693630000006748108462963260292_">
		<use xlink:href="#SVGID_1_"  style="overflow:visible;"/>
	</clipPath>
	
		<linearGradient id="SVGID_00000003078274303414680050000004348855362243531655_" gradientUnits="userSpaceOnUse" x1="-207.0633" y1="3834.8042" x2="-204.9493" y2="3834.8042" gradientTransform="matrix(414.375 138.8004 138.8004 -414.375 -446311.9375 1618196.125)">
		<stop  offset="0" style="stop-color:#0B0D3D"/>
		<stop  offset="0.5279" style="stop-color:#2C5DA9"/>
		<stop  offset="1" style="stop-color:#C8DDFA"/>
	</linearGradient>
	
		<polygon style="clip-path:url(#SVGID_00000011715863809853693630000006748108462963260292_);fill:url(#SVGID_00000003078274303414680050000004348855362243531655_);" points="
		292.12,302.42 673.4,430.13 582.42,701.74 201.14,574.02 	"/>
</g>
<g>
	<defs>
		<path id="SVGID_00000174566533546448912930000016516293167450990229_" d="M374.21,414.39v103.06c0,5.94-1.05,11.18-2.79,15.37
			c17.82-17.81,29-35.98,44.72-59.04v-59.39H374.21z"/>
	</defs>
	<clipPath id="SVGID_00000144304559507863751240000009753310297389577108_">
		<use xlink:href="#SVGID_00000174566533546448912930000016516293167450990229_"  style="overflow:visible;"/>
	</clipPath>
	
		<linearGradient id="SVGID_00000042009003472408233070000002085280080025536949_" gradientUnits="userSpaceOnUse" x1="-207.0633" y1="3834.8198" x2="-204.9493" y2="3834.8198" gradientTransform="matrix(414.375 138.8004 138.8004 -414.375 -446309.9062 1618190.125)">
		<stop  offset="0" style="stop-color:#0B0D3D"/>
		<stop  offset="0.5279" style="stop-color:#2C5DA9"/>
		<stop  offset="1" style="stop-color:#C8DDFA"/>
	</linearGradient>
	
		<polygon style="clip-path:url(#SVGID_00000144304559507863751240000009753310297389577108_);fill:url(#SVGID_00000042009003472408233070000002085280080025536949_);" points="
		375.93,400.92 451.8,426.34 411.62,546.29 335.75,520.87 	"/>
</g>
<g>
	<defs>
		<path id="SVGID_00000158737809568203839140000003643330008496732593_" d="M535.26,553.78c-29.35,0-48.56-19.21-48.56-51.7
			c0-13.98,3.49-26.2,9.78-34.59c-12.93,3.49-40.87,43.67-51.7,61.83v139.04h41.92V572.3c8.04,10.48,25.15,19.91,48.56,19.91
			c116.68,0,99.92-141.84,186.9-141.84c29.35,0,48.91,19.22,48.91,51.71c0,32.49-18.86,51.7-48.21,51.7
			c-29,0-48.21-19.21-48.21-51.7c0-10.48,2.1-19.56,5.94-27.25c-15.72,12.58-26.2,38.08-42.62,62.88
			c12.58,33.19,44.71,54.5,84.54,54.5c54.15,0,90.49-36.33,90.49-90.48c0-53.8-35.99-89.78-90.14-89.78
			C609.33,411.94,613.87,553.78,535.26,553.78"/>
	</defs>
	<clipPath id="SVGID_00000176034532869326261900000000596831180612975017_">
		<use xlink:href="#SVGID_00000158737809568203839140000003643330008496732593_"  style="overflow:visible;"/>
	</clipPath>
	
		<linearGradient id="SVGID_00000037678149281567091500000000323203390763504048_" gradientUnits="userSpaceOnUse" x1="-207.0633" y1="3834.8462" x2="-204.9493" y2="3834.8462" gradientTransform="matrix(414.375 138.8004 138.8004 -414.375 -446309.875 1618190)">
		<stop  offset="0" style="stop-color:#0B0D3D"/>
		<stop  offset="0.5279" style="stop-color:#2C5DA9"/>
		<stop  offset="1" style="stop-color:#C8DDFA"/>
	</linearGradient>
	
		<polygon style="clip-path:url(#SVGID_00000176034532869326261900000000596831180612975017_);fill:url(#SVGID_00000037678149281567091500000000323203390763504048_);" points="
		481.93,301.05 890.23,437.81 775.85,779.26 367.55,642.5 	"/>
</g>
<g>
	<defs>
		<path id="SVGID_00000030447784758463665000000007766326894808164258_" d="M748.75,605.69l17.59,13.22
			c-8.87,12.43-24.6,18.92-44.23,17.96c-20.43-1.01-36.61-9.17-49.34-24.96l-30.1,18.4c17.89,22.57,45.13,35.81,77.22,37.38
			c31.4,1.55,58.04-8.6,74.09-28.01l14.3,10.76l-3.28-53.05L748.75,605.69z"/>
	</defs>
	<clipPath id="SVGID_00000025400419512412561150000015718252216560014521_">
		<use xlink:href="#SVGID_00000030447784758463665000000007766326894808164258_"  style="overflow:visible;"/>
	</clipPath>
	
		<linearGradient id="SVGID_00000011022263764242325790000005159662641747984275_" gradientUnits="userSpaceOnUse" x1="-207.0647" y1="3834.7532" x2="-204.9508" y2="3834.7532" gradientTransform="matrix(414.375 138.8004 138.8004 -414.375 -446315.8438 1618206)">
		<stop  offset="0" style="stop-color:#0B0D3D"/>
		<stop  offset="0.5279" style="stop-color:#2C5DA9"/>
		<stop  offset="1" style="stop-color:#C8DDFA"/>
	</linearGradient>
	
		<polygon style="clip-path:url(#SVGID_00000025400419512412561150000015718252216560014521_);fill:url(#SVGID_00000011022263764242325790000005159662641747984275_);" points="
		659.37,547.5 829.91,604.63 791.56,719.1 621.03,661.98 	"/>
</g>
</svg>
