<?xml version="1.0" encoding="UTF-8"?>
<svg id="Layer_2" data-name="Layer 2" xmlns="http://www.w3.org/2000/svg" xmlns:xlink="http://www.w3.org/1999/xlink" viewBox="0 0 527.32 121.3">
  <defs>
    <style>
      .cls-1 {
        fill: url(#linear-gradient-2);
      }

      .cls-2 {
        fill: url(#linear-gradient-4);
      }

      .cls-3 {
        fill: url(#linear-gradient-3);
      }

      .cls-4 {
        font-family: Poppins-Medium, Poppins;
        font-size: 38.32px;
        font-weight: 500;
      }

      .cls-5 {
        fill: url(#linear-gradient);
      }
    </style>
    <linearGradient id="linear-gradient" x1="-45.82" y1="-1.38" x2="368.56" y2="137.42" gradientUnits="userSpaceOnUse">
      <stop offset="0" stop-color="#430f00"/>
      <stop offset=".53" stop-color="#863300"/>
      <stop offset="1" stop-color="#de6300"/>
    </linearGradient>
    <linearGradient id="linear-gradient-2" x1="-43.8" y1="-7.42" x2="370.58" y2="131.38" xlink:href="#linear-gradient"/>
    <linearGradient id="linear-gradient-3" x1="-43.78" y1="-7.47" x2="370.59" y2="131.33" xlink:href="#linear-gradient"/>
    <linearGradient id="linear-gradient-4" x1="-49.74" y1="8.48" x2="364.64" y2="147.28" xlink:href="#linear-gradient"/>
  </defs>
  <g id="Layer_1-2" data-name="Layer 1">
    <text class="cls-4" transform="translate(287.16 54.45)"><tspan x="0" y="0">UAE Property</tspan><tspan x="0" y="39.21">Guide</tspan></text>
    <g>
      <path class="cls-5" d="M132.71,0c19.17,0,33.38,9.92,39.33,25.29-6.61,9.59-11.24,18.34-18.18,27.43.83-2.81,1.32-6.45,1.32-10.08,0-15.37-9.09-24.46-22.81-24.46-46.44,0-39.99,67.1-94.37,67.1C10.74,85.28,0,64.78,0,50.41V1.16h19.83v48.75c0,11.57,8.59,17.02,18.18,17.02C73.21,66.93,75.69,0,132.71,0Z"/>
      <path class="cls-1" d="M54.87,57.18c.83-1.98,1.32-4.46,1.32-7.27V1.16h19.83v28.09c-7.44,10.91-12.73,19.5-21.15,27.93Z"/>
      <path class="cls-3" d="M221.12,0c25.62,0,42.64,17.02,42.64,42.47s-17.19,42.8-42.8,42.8c-18.84,0-34.04-10.08-39.99-25.78,7.77-11.73,12.72-23.8,20.16-29.75-1.82,3.64-2.81,7.93-2.81,12.89,0,15.37,9.09,24.46,22.81,24.46s22.81-9.09,22.81-24.46-9.25-24.46-23.14-24.46c-41.15,0-33.22,67.1-88.42,67.1-11.07,0-19.17-4.46-22.97-9.42v45.44h-19.83V55.53c5.12-8.59,18.34-27.6,24.46-29.25-2.97,3.97-4.63,9.75-4.63,16.36,0,15.37,9.09,24.46,22.97,24.46C169.56,67.1,167.41,0,221.12,0Z"/>
      <path class="cls-2" d="M261.52,112.82l-6.76-5.09c-7.59,9.18-20.19,13.98-35.05,13.25s-28.07-7.01-36.53-17.68l14.24-8.71c6.02,7.47,13.68,11.33,23.34,11.81s16.72-2.61,20.92-8.49l-8.32-6.25,26.6-3.93,1.55,25.1Z"/>
    </g>
  </g>
</svg>